<svg xmlns="http://www.w3.org/2000/svg" viewBox="0 0 1200 300" width="1200" height="300">
<g transform="translate(0,300) scale(0.1,-0.1)" fill="#FFFFFF" stroke="none">
<path d="M1358 2538 c-9 -7 -70 -80 -135 -163 -141 -177 -147 -183 -174 -167 -42 27 -69 8 -201 -136 -105 -113 -105 -124 -3 -221 45 -42 84 -71 96 -71 20 0 185 148 229 205 46 59 132 257 189 438 40 126 40 147 -1 115z"/>
<path d="M1647 2298 c-35 -51 -92 -137 -127 -191 -54 -85 -66 -98 -84 -92 -68 22 -61 26 -243 -158 -128 -128 -173 -180 -173 -198 0 -18 28 -51 106 -126 59 -57 115 -103 124 -103 22 0 295 291 319 339 43 85 185 579 175 606 -12 30 -34 13 -97 -77z"/>
<path d="M8553 2069 c-75 -22 -77 -46 -66 -721 8 -478 8 -478 34 -503 46 -47 235 -53 278 -10 14 14 16 87 19 594 3 427 1 585 -8 601 -6 12 -27 28 -45 36 -38 16 -162 17 -212 3z"/>
<path d="M7540 2045 c-246 -54 -407 -200 -469 -425 -27 -94 -29 -277 -7 -395 30 -154 125 -293 244 -358 302 -164 765 -101 975 133 56 63 88 142 88 223 1 48 -4 64 -21 81 -19 19 -31 21 -140 20 -140 -1 -153 -7 -198 -87 -58 -103 -151 -157 -268 -157 -105 0 -232 59 -289 135 -103 134 -79 363 48 459 161 123 382 90 486 -72 35 -56 74 -77 164 -92 69 -11 150 2 187 29 22 17 25 25 24 82 -2 171 -158 327 -404 404 -108 33 -316 43 -420 20z"/>
<path d="M2288 1983 c-47 -3 -61 -9 -78 -30 -20 -26 -21 -34 -18 -568 3 -452 5 -545 17 -559 14 -16 45 -17 410 -14 368 4 401 6 463 25 182 57 299 176 354 358 14 46 19 94 19 205 0 137 -2 150 -31 230 -71 200 -182 296 -391 336 -72 13 -624 27 -745 17z m643 -317 c111 -41 169 -129 168 -256 0 -83 -14 -132 -53 -188 -56 -81 -118 -110 -280 -131 -100 -14 -174 0 -208 39 -28 30 -28 30 -27 248 0 235 7 278 49 300 36 19 289 11 351 -12z"/>
<path d="M401 1756 l-166 -165 -9 -515 c-8 -512 -6 -590 17 -584 23 6 403 404 420 440 15 31 17 71 17 287 0 288 1 291 80 375 28 30 50 62 50 75 0 21 -212 251 -233 251 -5 0 -84 -74 -176 -164z"/>
<path d="M1817 1872 c-9 -10 -43 -66 -74 -124 -70 -128 -94 -158 -129 -158 -20 0 -49 -22 -111 -82 -100 -97 -203 -214 -203 -230 0 -22 136 -148 160 -148 35 0 242 208 274 276 33 69 69 199 97 347 23 122 19 156 -14 119z"/>
<path d="M9420 1759 c-208 -18 -382 -115 -441 -244 -26 -55 -24 -91 6 -120 21 -22 33 -25 93 -25 82 0 161 21 222 60 103 66 168 75 241 37 69 -37 112 -117 77 -144 -7 -6 -87 -13 -178 -16 -188 -7 -334 -29 -388 -56 -103 -53 -150 -165 -117 -278 22 -77 95 -150 175 -177 61 -20 199 -32 252 -22 18 3 81 35 138 71 58 36 111 64 119 63 7 -2 23 -21 35 -43 27 -48 42 -53 174 -54 120 -1 133 6 151 89 15 69 15 451 0 521 -50 239 -258 365 -559 338z m194 -599 c33 -12 33 -40 1 -78 -53 -63 -185 -97 -274 -70 -51 15 -67 35 -57 71 13 55 93 83 238 86 37 0 78 -3 92 -9z"/>
<path d="M6284 1745 c-169 -30 -259 -88 -346 -220 -58 -89 -81 -176 -76 -288 3 -81 8 -102 40 -169 112 -235 374 -340 677 -271 217 49 360 215 377 438 7 83 -21 202 -63 274 -115 196 -343 285 -609 236z m220 -305 c99 -37 140 -112 116 -208 -18 -73 -47 -111 -104 -138 -152 -71 -326 25 -326 181 0 79 41 132 126 165 64 25 121 25 188 0z"/>
<path d="M5273 1740 c-54 -11 -117 -44 -177 -91 -64 -51 -81 -50 -98 3 -20 59 -60 81 -147 82 -84 1 -126 -16 -141 -57 -17 -47 -26 -621 -12 -725 17 -120 26 -136 87 -143 28 -3 86 -3 130 0 74 6 81 8 92 32 8 17 16 106 21 242 8 205 10 218 36 270 38 79 76 100 166 95 84 -4 115 -24 150 -94 24 -47 25 -60 30 -266 6 -271 6 -270 126 -279 93 -8 169 2 192 24 47 48 41 553 -9 700 -30 90 -79 150 -147 184 -49 24 -70 28 -157 30 -55 1 -119 -2 -142 -7z"/>
<path d="M3590 1731 c-52 -6 -55 -7 -58 -37 -4 -42 45 -171 198 -519 73 -165 134 -317 137 -337 11 -77 -60 -127 -180 -128 -85 0 -111 -21 -122 -97 -15 -115 40 -159 195 -157 80 1 109 7 180 33 134 49 178 85 238 194 132 237 420 953 410 1019 -4 29 -57 41 -154 35 -86 -5 -143 -33 -172 -86 -23 -42 -116 -313 -132 -386 -36 -170 -57 -149 -184 195 -42 112 -84 212 -93 223 -38 43 -144 62 -263 48z"/>
<path d="M10140 1730 c-36 -3 -71 -10 -78 -14 -19 -12 -15 -45 28 -208 21 -84 62 -256 90 -381 55 -249 75 -302 118 -314 15 -4 99 -8 187 -8 145 0 163 2 187 20 42 31 72 104 142 345 64 220 84 266 107 243 6 -6 45 -127 85 -267 41 -141 81 -270 89 -286 23 -44 68 -52 272 -48 164 3 176 4 192 24 10 12 62 196 120 427 81 319 101 409 92 424 -17 34 -69 48 -164 47 -77 -2 -91 -5 -113 -25 -49 -46 -80 -177 -108 -463 -8 -76 -19 -143 -24 -148 -6 -6 -19 -7 -30 -4 -15 5 -25 30 -47 124 -44 189 -122 442 -142 464 -36 41 -76 49 -239 49 -165 0 -199 -8 -229 -54 -8 -13 -45 -137 -83 -277 -65 -246 -69 -255 -94 -258 -25 -3 -25 -3 -32 95 -10 130 -52 382 -72 433 -27 68 -73 79 -254 60z"/>
<path d="M1594 1075 c-78 -77 -119 -105 -152 -105 -16 0 -47 23 -91 65 -37 36 -74 65 -82 65 -8 0 -50 -36 -94 -80 -44 -44 -93 -84 -110 -89 -16 -5 -70 -10 -118 -10 -80 0 -93 -2 -127 -26 -68 -47 -410 -402 -410 -425 0 -22 0 -22 368 -17 240 2 379 8 403 15 55 18 483 455 498 508 15 54 14 127 -3 149 -12 17 -18 14 -82 -50z"/>
</g>
</svg>
