<svg xmlns="http://www.w3.org/2000/svg" viewBox="0 0 200 300" width="200" height="300">
<defs>
  <linearGradient id="brand" x1="0%" y1="0%" x2="100%" y2="100%">
    <stop offset="0%" stop-color="#7F5FFF"/>
    <stop offset="100%" stop-color="#B347D9"/>
  </linearGradient>
</defs>
<g transform="translate(-2,300) scale(0.1,-0.1)" fill="url(#brand)" stroke="none">
<path d="M1358 2538 c-9 -7 -70 -80 -135 -163 -141 -177 -147 -183 -174 -167 -42 27 -69 8 -201 -136 -105 -113 -105 -124 -3 -221 45 -42 84 -71 96 -71 20 0 185 148 229 205 46 59 132 257 189 438 40 126 40 147 -1 115z"/>
<path d="M1647 2298 c-35 -51 -92 -137 -127 -191 -54 -85 -66 -98 -84 -92 -68 22 -61 26 -243 -158 -128 -128 -173 -180 -173 -198 0 -18 28 -51 106 -126 59 -57 115 -103 124 -103 22 0 295 291 319 339 43 85 185 579 175 606 -12 30 -34 13 -97 -77z"/>
<path d="M401 1756 l-166 -165 -9 -515 c-8 -512 -6 -590 17 -584 23 6 403 404 420 440 15 31 17 71 17 287 0 288 1 291 80 375 28 30 50 62 50 75 0 21 -212 251 -233 251 -5 0 -84 -74 -176 -164z"/>
<path d="M1817 1872 c-9 -10 -43 -66 -74 -124 -70 -128 -94 -158 -129 -158 -20 0 -49 -22 -111 -82 -100 -97 -203 -214 -203 -230 0 -22 136 -148 160 -148 35 0 242 208 274 276 33 69 69 199 97 347 23 122 19 156 -14 119z"/>
<path d="M1594 1075 c-78 -77 -119 -105 -152 -105 -16 0 -47 23 -91 65 -37 36 -74 65 -82 65 -8 0 -50 -36 -94 -80 -44 -44 -93 -84 -110 -89 -16 -5 -70 -10 -118 -10 -80 0 -93 -2 -127 -26 -68 -47 -410 -402 -410 -425 0 -22 0 -22 368 -17 240 2 379 8 403 15 55 18 483 455 498 508 15 54 14 127 -3 149 -12 17 -18 14 -82 -50z"/>
</g>
</svg>
